<mxfile host="app.diagrams.net" modified="2024-02-04T08:12:46.299Z" agent="Mozilla/5.0 (Macintosh; Intel Mac OS X 10_15_7) AppleWebKit/537.36 (KHTML, like Gecko) Chrome/120.0.0.0 Safari/537.36" version="23.1.1" etag="8nbEQ09cDphuHE6_9Mza" type="github">
  <diagram name="페이지-1" id="Ue3QgiZELW-bqDxXKRT1">
    <mxGraphModel>
      <root>
        <mxCell id="0" />
        <mxCell id="1" parent="0" />
      </root>
    </mxGraphModel>
  </diagram>
</mxfile>
